# xmcd
#
# Track frame offsets:
#	150
#	17430
#	32802
#	45136
#	61165
#	74158
#	88564
#	100022
#	115250
#	129649
#	142430
#	154116
#	167250
#	181141
#	193818
#	211750
#	226725
#	243186
#	255020
#	257963
#	268641
#	282686
#	296771
#	310588
#	324626
#
# Disc length: 4498 seconds
#
# Revision: 2
# Processed by: cddbd v1.5.2PL0 Copyright (c) Steve Scherf et al.
# Submitted via: EZCDAudioConverter 1.5.5.1
#
DISCID=5f119019
DTITLE=Rangers - To nejlepsi z Plavcu
DYEAR=2005
DGENRE=Country
TTITLE0=Krajina oblych kopcu
TTITLE1=Poutnik s kytarou
TTITLE2=Trpaslici svatba
TTITLE3=Drak od bile skaly
TTITLE4=Slava
TTITLE5=Kamarad
TTITLE6=Erb toulaveho rodu
TTITLE7=Ja a ty
TTITLE8=Dvojnici
TTITLE9=Mam rad swing
TTITLE10=A dur
TTITLE11=Oci tve lzou nejlip
TTITLE12=Inzenyrska
TTITLE13=Sejdeme se u Rotta
TTITLE14=Prilis stary do diskotek
TTITLE15=Takovy jses ty
TTITLE16=Jirka a cert
TTITLE17=Snadne
TTITLE18=Uvod
TTITLE19=Lenka
TTITLE20=S namahou
TTITLE21=Frantiska a Jenik
TTITLE22=Destiva nalada
TTITLE23=Muj pes suveren
TTITLE24=C'est la vie (parodie)
EXTD=
EXTT0=
EXTT1=
EXTT2=
EXTT3=
EXTT4=
EXTT5=
EXTT6=
EXTT7=
EXTT8=
EXTT9=
EXTT10=
EXTT11=
EXTT12=
EXTT13=
EXTT14=
EXTT15=
EXTT16=
EXTT17=
EXTT18=
EXTT19=
EXTT20=
EXTT21=
EXTT22=
EXTT23=
EXTT24=
PLAYORDER=
